<mxfile host="app.diagrams.net" modified="2023-10-25T14:33:35.451Z" agent="Mozilla/5.0 (Windows NT 10.0; Win64; x64) AppleWebKit/537.36 (KHTML, like Gecko) Chrome/118.0.0.0 Safari/537.36" etag="6iLbYoit5uDwEpzE8Ike" version="22.0.8" type="device">
  <diagram name="Page-1" id="YRoVtyymLoEndOjKTrhP">
    <mxGraphModel dx="1235" dy="721" grid="1" gridSize="10" guides="1" tooltips="1" connect="1" arrows="1" fold="1" page="1" pageScale="1" pageWidth="1500" pageHeight="2000" math="0" shadow="0">
      <root>
        <mxCell id="0" />
        <mxCell id="1" parent="0" />
        <mxCell id="YKkuQYXPzLdTV8S69N7t-1" value="&lt;font size=&quot;3&quot;&gt;KORISNIK&lt;/font&gt;" style="rounded=0;whiteSpace=wrap;html=1;" vertex="1" parent="1">
          <mxGeometry x="350" y="220" width="120" height="60" as="geometry" />
        </mxCell>
        <mxCell id="YKkuQYXPzLdTV8S69N7t-2" value="ime" style="ellipse;whiteSpace=wrap;html=1;" vertex="1" parent="1">
          <mxGeometry x="220" y="70" width="80" height="50" as="geometry" />
        </mxCell>
        <mxCell id="YKkuQYXPzLdTV8S69N7t-3" value="prezime" style="ellipse;whiteSpace=wrap;html=1;" vertex="1" parent="1">
          <mxGeometry x="330" y="70" width="80" height="50" as="geometry" />
        </mxCell>
        <mxCell id="YKkuQYXPzLdTV8S69N7t-6" value="&lt;u&gt;ebmg&lt;/u&gt;" style="ellipse;whiteSpace=wrap;html=1;" vertex="1" parent="1">
          <mxGeometry x="430" y="70" width="80" height="50" as="geometry" />
        </mxCell>
        <mxCell id="YKkuQYXPzLdTV8S69N7t-7" value="adresa" style="ellipse;whiteSpace=wrap;html=1;" vertex="1" parent="1">
          <mxGeometry x="510" y="130" width="80" height="50" as="geometry" />
        </mxCell>
        <mxCell id="YKkuQYXPzLdTV8S69N7t-8" value="ulica" style="ellipse;whiteSpace=wrap;html=1;" vertex="1" parent="1">
          <mxGeometry x="580" y="20" width="80" height="50" as="geometry" />
        </mxCell>
        <mxCell id="YKkuQYXPzLdTV8S69N7t-9" value="broj&lt;br&gt;" style="ellipse;whiteSpace=wrap;html=1;" vertex="1" parent="1">
          <mxGeometry x="650" y="80" width="80" height="50" as="geometry" />
        </mxCell>
        <mxCell id="YKkuQYXPzLdTV8S69N7t-10" value="grad" style="ellipse;whiteSpace=wrap;html=1;" vertex="1" parent="1">
          <mxGeometry x="640" y="140" width="80" height="50" as="geometry" />
        </mxCell>
        <mxCell id="YKkuQYXPzLdTV8S69N7t-12" value="" style="endArrow=none;html=1;rounded=0;entryX=0.193;entryY=-0.03;entryDx=0;entryDy=0;entryPerimeter=0;" edge="1" parent="1" source="YKkuQYXPzLdTV8S69N7t-2" target="YKkuQYXPzLdTV8S69N7t-1">
          <mxGeometry width="50" height="50" relative="1" as="geometry">
            <mxPoint x="260" y="170" as="sourcePoint" />
            <mxPoint x="260" y="190.71067811865476" as="targetPoint" />
          </mxGeometry>
        </mxCell>
        <mxCell id="YKkuQYXPzLdTV8S69N7t-16" value="" style="endArrow=none;html=1;rounded=0;entryX=0.36;entryY=0.023;entryDx=0;entryDy=0;entryPerimeter=0;" edge="1" parent="1" source="YKkuQYXPzLdTV8S69N7t-3" target="YKkuQYXPzLdTV8S69N7t-1">
          <mxGeometry width="50" height="50" relative="1" as="geometry">
            <mxPoint x="370" y="170" as="sourcePoint" />
            <mxPoint x="370" y="190.71067811865476" as="targetPoint" />
          </mxGeometry>
        </mxCell>
        <mxCell id="YKkuQYXPzLdTV8S69N7t-17" value="" style="endArrow=none;html=1;rounded=0;entryX=0.647;entryY=-0.07;entryDx=0;entryDy=0;entryPerimeter=0;" edge="1" parent="1" source="YKkuQYXPzLdTV8S69N7t-6" target="YKkuQYXPzLdTV8S69N7t-1">
          <mxGeometry width="50" height="50" relative="1" as="geometry">
            <mxPoint x="470" y="170" as="sourcePoint" />
            <mxPoint x="470" y="190.71067811865476" as="targetPoint" />
          </mxGeometry>
        </mxCell>
        <mxCell id="YKkuQYXPzLdTV8S69N7t-18" value="" style="endArrow=none;html=1;rounded=0;entryX=0.933;entryY=-0.03;entryDx=0;entryDy=0;entryPerimeter=0;" edge="1" parent="1" source="YKkuQYXPzLdTV8S69N7t-7" target="YKkuQYXPzLdTV8S69N7t-1">
          <mxGeometry width="50" height="50" relative="1" as="geometry">
            <mxPoint x="550" y="230" as="sourcePoint" />
            <mxPoint x="550" y="250.71067811865476" as="targetPoint" />
          </mxGeometry>
        </mxCell>
        <mxCell id="YKkuQYXPzLdTV8S69N7t-19" value="" style="endArrow=none;html=1;rounded=0;entryX=1;entryY=0.5;entryDx=0;entryDy=0;exitX=0;exitY=0.5;exitDx=0;exitDy=0;shape=link;" edge="1" parent="1" source="YKkuQYXPzLdTV8S69N7t-138" target="YKkuQYXPzLdTV8S69N7t-1">
          <mxGeometry width="50" height="50" relative="1" as="geometry">
            <mxPoint x="620.0315663134245" y="245.99300456364165" as="sourcePoint" />
            <mxPoint x="549.2893218813452" y="245" as="targetPoint" />
          </mxGeometry>
        </mxCell>
        <mxCell id="YKkuQYXPzLdTV8S69N7t-21" value="" style="endArrow=none;html=1;rounded=0;entryX=1;entryY=0.5;entryDx=0;entryDy=0;" edge="1" parent="1" source="YKkuQYXPzLdTV8S69N7t-10" target="YKkuQYXPzLdTV8S69N7t-7">
          <mxGeometry width="50" height="50" relative="1" as="geometry">
            <mxPoint x="569.2893218813452" y="215" as="sourcePoint" />
            <mxPoint x="569.2893218813452" y="165" as="targetPoint" />
          </mxGeometry>
        </mxCell>
        <mxCell id="YKkuQYXPzLdTV8S69N7t-22" value="" style="endArrow=none;html=1;rounded=0;entryX=0.72;entryY=-0.012;entryDx=0;entryDy=0;entryPerimeter=0;" edge="1" parent="1" source="YKkuQYXPzLdTV8S69N7t-9" target="YKkuQYXPzLdTV8S69N7t-7">
          <mxGeometry width="50" height="50" relative="1" as="geometry">
            <mxPoint x="579.2893218813452" y="155" as="sourcePoint" />
            <mxPoint x="579.2893218813452" y="105" as="targetPoint" />
          </mxGeometry>
        </mxCell>
        <mxCell id="YKkuQYXPzLdTV8S69N7t-23" value="" style="endArrow=none;html=1;rounded=0;entryX=0.5;entryY=0;entryDx=0;entryDy=0;" edge="1" parent="1" source="YKkuQYXPzLdTV8S69N7t-8" target="YKkuQYXPzLdTV8S69N7t-7">
          <mxGeometry width="50" height="50" relative="1" as="geometry">
            <mxPoint x="509.28932188134524" y="95" as="sourcePoint" />
            <mxPoint x="509.28932188134524" y="45" as="targetPoint" />
          </mxGeometry>
        </mxCell>
        <mxCell id="YKkuQYXPzLdTV8S69N7t-27" value="" style="edgeStyle=orthogonalEdgeStyle;rounded=0;orthogonalLoop=1;jettySize=auto;html=1;entryX=0;entryY=0.25;entryDx=0;entryDy=0;endArrow=none;endFill=0;" edge="1" parent="1" source="YKkuQYXPzLdTV8S69N7t-25" target="YKkuQYXPzLdTV8S69N7t-49">
          <mxGeometry relative="1" as="geometry">
            <mxPoint x="190" y="330" as="targetPoint" />
          </mxGeometry>
        </mxCell>
        <mxCell id="YKkuQYXPzLdTV8S69N7t-25" value="&lt;u&gt;broj&lt;/u&gt;" style="ellipse;whiteSpace=wrap;html=1;" vertex="1" parent="1">
          <mxGeometry x="30" y="430" width="80" height="50" as="geometry" />
        </mxCell>
        <mxCell id="YKkuQYXPzLdTV8S69N7t-26" value="datum" style="ellipse;whiteSpace=wrap;html=1;" vertex="1" parent="1">
          <mxGeometry x="20" y="530" width="80" height="50" as="geometry" />
        </mxCell>
        <mxCell id="YKkuQYXPzLdTV8S69N7t-29" value="" style="endArrow=none;html=1;rounded=0;entryX=0;entryY=0.75;entryDx=0;entryDy=0;" edge="1" parent="1" source="YKkuQYXPzLdTV8S69N7t-26" target="YKkuQYXPzLdTV8S69N7t-49">
          <mxGeometry width="50" height="50" relative="1" as="geometry">
            <mxPoint x="150" y="475" as="sourcePoint" />
            <mxPoint x="217.20000000000005" y="358.98" as="targetPoint" />
          </mxGeometry>
        </mxCell>
        <mxCell id="YKkuQYXPzLdTV8S69N7t-123" style="edgeStyle=orthogonalEdgeStyle;rounded=0;orthogonalLoop=1;jettySize=auto;html=1;exitX=1;exitY=0;exitDx=0;exitDy=0;entryX=0;entryY=0.5;entryDx=0;entryDy=0;endArrow=none;endFill=0;shape=link;" edge="1" parent="1" source="YKkuQYXPzLdTV8S69N7t-31" target="YKkuQYXPzLdTV8S69N7t-122">
          <mxGeometry relative="1" as="geometry" />
        </mxCell>
        <mxCell id="YKkuQYXPzLdTV8S69N7t-31" value="paket" style="rounded=0;whiteSpace=wrap;html=1;" vertex="1" parent="1">
          <mxGeometry x="285" y="860" width="120" height="60" as="geometry" />
        </mxCell>
        <mxCell id="YKkuQYXPzLdTV8S69N7t-32" value="ime" style="ellipse;whiteSpace=wrap;html=1;" vertex="1" parent="1">
          <mxGeometry x="100" y="900" width="80" height="50" as="geometry" />
        </mxCell>
        <mxCell id="YKkuQYXPzLdTV8S69N7t-33" value="&lt;u&gt;sifra&lt;/u&gt;" style="ellipse;whiteSpace=wrap;html=1;" vertex="1" parent="1">
          <mxGeometry x="190" y="950" width="80" height="50" as="geometry" />
        </mxCell>
        <mxCell id="YKkuQYXPzLdTV8S69N7t-34" value="tip" style="ellipse;whiteSpace=wrap;html=1;" vertex="1" parent="1">
          <mxGeometry x="430" y="975" width="80" height="50" as="geometry" />
        </mxCell>
        <mxCell id="YKkuQYXPzLdTV8S69N7t-35" value="mesecna&lt;br&gt;pretplata" style="ellipse;whiteSpace=wrap;html=1;" vertex="1" parent="1">
          <mxGeometry x="315" y="990" width="80" height="50" as="geometry" />
        </mxCell>
        <mxCell id="YKkuQYXPzLdTV8S69N7t-36" value="" style="endArrow=none;html=1;rounded=0;entryX=0;entryY=0.5;entryDx=0;entryDy=0;" edge="1" parent="1" source="YKkuQYXPzLdTV8S69N7t-31" target="YKkuQYXPzLdTV8S69N7t-32">
          <mxGeometry width="50" height="50" relative="1" as="geometry">
            <mxPoint x="910" y="349.28932188134524" as="sourcePoint" />
            <mxPoint x="910" y="299.28932188134524" as="targetPoint" />
          </mxGeometry>
        </mxCell>
        <mxCell id="YKkuQYXPzLdTV8S69N7t-37" value="" style="endArrow=none;html=1;rounded=0;entryX=-0.005;entryY=0.668;entryDx=0;entryDy=0;entryPerimeter=0;" edge="1" parent="1" source="YKkuQYXPzLdTV8S69N7t-31" target="YKkuQYXPzLdTV8S69N7t-33">
          <mxGeometry width="50" height="50" relative="1" as="geometry">
            <mxPoint x="970" y="450" as="sourcePoint" />
            <mxPoint x="1040.7106781186549" y="400" as="targetPoint" />
          </mxGeometry>
        </mxCell>
        <mxCell id="YKkuQYXPzLdTV8S69N7t-38" value="" style="endArrow=none;html=1;rounded=0;entryX=1;entryY=0.75;entryDx=0;entryDy=0;" edge="1" parent="1" source="YKkuQYXPzLdTV8S69N7t-34" target="YKkuQYXPzLdTV8S69N7t-31">
          <mxGeometry width="50" height="50" relative="1" as="geometry">
            <mxPoint x="1039.2893218813451" y="505" as="sourcePoint" />
            <mxPoint x="1039.2893218813451" y="455" as="targetPoint" />
          </mxGeometry>
        </mxCell>
        <mxCell id="YKkuQYXPzLdTV8S69N7t-39" value="" style="endArrow=none;html=1;rounded=0;" edge="1" parent="1" source="YKkuQYXPzLdTV8S69N7t-35" target="YKkuQYXPzLdTV8S69N7t-31">
          <mxGeometry width="50" height="50" relative="1" as="geometry">
            <mxPoint x="1009.2893218813452" y="595" as="sourcePoint" />
            <mxPoint x="1009.2893218813452" y="545" as="targetPoint" />
          </mxGeometry>
        </mxCell>
        <mxCell id="YKkuQYXPzLdTV8S69N7t-41" value="telefonski&lt;br&gt;broj" style="rounded=0;whiteSpace=wrap;html=1;" vertex="1" parent="1">
          <mxGeometry x="295" y="400" width="120" height="60" as="geometry" />
        </mxCell>
        <mxCell id="YKkuQYXPzLdTV8S69N7t-42" value="" style="rhombus;whiteSpace=wrap;html=1;" vertex="1" parent="1">
          <mxGeometry x="400" y="320" width="40" height="40" as="geometry" />
        </mxCell>
        <mxCell id="YKkuQYXPzLdTV8S69N7t-43" value="" style="endArrow=none;html=1;rounded=0;entryX=0.393;entryY=1.037;entryDx=0;entryDy=0;entryPerimeter=0;" edge="1" parent="1" source="YKkuQYXPzLdTV8S69N7t-42" target="YKkuQYXPzLdTV8S69N7t-1">
          <mxGeometry width="50" height="50" relative="1" as="geometry">
            <mxPoint x="420" y="299.28932188134524" as="sourcePoint" />
            <mxPoint x="420" y="249.28932188134524" as="targetPoint" />
          </mxGeometry>
        </mxCell>
        <mxCell id="YKkuQYXPzLdTV8S69N7t-44" value="" style="endArrow=none;html=1;rounded=0;entryX=0.5;entryY=1;entryDx=0;entryDy=0;" edge="1" parent="1" source="YKkuQYXPzLdTV8S69N7t-41" target="YKkuQYXPzLdTV8S69N7t-42">
          <mxGeometry width="50" height="50" relative="1" as="geometry">
            <mxPoint x="420" y="389.28932188134524" as="sourcePoint" />
            <mxPoint x="440" y="380" as="targetPoint" />
          </mxGeometry>
        </mxCell>
        <mxCell id="YKkuQYXPzLdTV8S69N7t-45" value="&lt;u&gt;broj&lt;/u&gt;" style="ellipse;whiteSpace=wrap;html=1;" vertex="1" parent="1">
          <mxGeometry x="275" y="280" width="80" height="50" as="geometry" />
        </mxCell>
        <mxCell id="YKkuQYXPzLdTV8S69N7t-46" value="" style="endArrow=none;html=1;rounded=0;entryX=0.75;entryY=0;entryDx=0;entryDy=0;" edge="1" parent="1" source="YKkuQYXPzLdTV8S69N7t-45" target="YKkuQYXPzLdTV8S69N7t-41">
          <mxGeometry width="50" height="50" relative="1" as="geometry">
            <mxPoint x="429.28932188134524" y="385" as="sourcePoint" />
            <mxPoint x="429.28932188134524" y="335" as="targetPoint" />
          </mxGeometry>
        </mxCell>
        <mxCell id="YKkuQYXPzLdTV8S69N7t-47" value="1" style="text;html=1;align=center;verticalAlign=middle;resizable=0;points=[];autosize=1;strokeColor=none;fillColor=none;" vertex="1" parent="1">
          <mxGeometry x="405" y="278" width="30" height="30" as="geometry" />
        </mxCell>
        <mxCell id="YKkuQYXPzLdTV8S69N7t-48" value="N" style="text;html=1;align=center;verticalAlign=middle;resizable=0;points=[];autosize=1;strokeColor=none;fillColor=none;" vertex="1" parent="1">
          <mxGeometry x="370" y="370" width="30" height="30" as="geometry" />
        </mxCell>
        <mxCell id="YKkuQYXPzLdTV8S69N7t-49" value="DOGOVOR" style="rounded=0;whiteSpace=wrap;html=1;" vertex="1" parent="1">
          <mxGeometry x="180" y="540" width="120" height="60" as="geometry" />
        </mxCell>
        <mxCell id="YKkuQYXPzLdTV8S69N7t-52" value="" style="rounded=0;orthogonalLoop=1;jettySize=auto;html=1;endArrow=none;endFill=0;shape=link;" edge="1" parent="1" source="YKkuQYXPzLdTV8S69N7t-50" target="YKkuQYXPzLdTV8S69N7t-49">
          <mxGeometry relative="1" as="geometry" />
        </mxCell>
        <mxCell id="YKkuQYXPzLdTV8S69N7t-50" value="" style="rhombus;whiteSpace=wrap;html=1;" vertex="1" parent="1">
          <mxGeometry x="290" y="480" width="40" height="40" as="geometry" />
        </mxCell>
        <mxCell id="YKkuQYXPzLdTV8S69N7t-51" value="" style="endArrow=none;html=1;rounded=0;entryX=0.25;entryY=1;entryDx=0;entryDy=0;shape=link;" edge="1" parent="1" source="YKkuQYXPzLdTV8S69N7t-50" target="YKkuQYXPzLdTV8S69N7t-41">
          <mxGeometry width="50" height="50" relative="1" as="geometry">
            <mxPoint x="300" y="439.28932188134524" as="sourcePoint" />
            <mxPoint x="300" y="389.28932188134524" as="targetPoint" />
          </mxGeometry>
        </mxCell>
        <mxCell id="YKkuQYXPzLdTV8S69N7t-53" value="1" style="text;html=1;align=center;verticalAlign=middle;resizable=0;points=[];autosize=1;strokeColor=none;fillColor=none;" vertex="1" parent="1">
          <mxGeometry x="310" y="470" width="30" height="30" as="geometry" />
        </mxCell>
        <mxCell id="YKkuQYXPzLdTV8S69N7t-54" value="N" style="text;html=1;align=center;verticalAlign=middle;resizable=0;points=[];autosize=1;strokeColor=none;fillColor=none;" vertex="1" parent="1">
          <mxGeometry x="255" y="508" width="30" height="30" as="geometry" />
        </mxCell>
        <mxCell id="YKkuQYXPzLdTV8S69N7t-56" value="" style="edgeStyle=orthogonalEdgeStyle;rounded=0;orthogonalLoop=1;jettySize=auto;html=1;endArrow=none;endFill=0;" edge="1" parent="1" source="YKkuQYXPzLdTV8S69N7t-55" target="YKkuQYXPzLdTV8S69N7t-49">
          <mxGeometry relative="1" as="geometry" />
        </mxCell>
        <mxCell id="YKkuQYXPzLdTV8S69N7t-55" value="raskinuvawe" style="ellipse;whiteSpace=wrap;html=1;" vertex="1" parent="1">
          <mxGeometry x="70" y="630" width="80" height="50" as="geometry" />
        </mxCell>
        <mxCell id="YKkuQYXPzLdTV8S69N7t-57" value="" style="rhombus;whiteSpace=wrap;html=1;" vertex="1" parent="1">
          <mxGeometry x="305" y="720" width="40" height="40" as="geometry" />
        </mxCell>
        <mxCell id="YKkuQYXPzLdTV8S69N7t-58" value="" style="endArrow=none;html=1;rounded=0;entryX=0;entryY=0.5;entryDx=0;entryDy=0;shape=link;" edge="1" parent="1" source="YKkuQYXPzLdTV8S69N7t-49" target="YKkuQYXPzLdTV8S69N7t-57">
          <mxGeometry width="50" height="50" relative="1" as="geometry">
            <mxPoint x="300" y="620" as="sourcePoint" />
            <mxPoint x="370.71067811865476" y="570" as="targetPoint" />
          </mxGeometry>
        </mxCell>
        <mxCell id="YKkuQYXPzLdTV8S69N7t-59" value="" style="endArrow=none;html=1;rounded=0;entryX=1;entryY=0.5;entryDx=0;entryDy=0;shape=link;" edge="1" parent="1" source="YKkuQYXPzLdTV8S69N7t-31" target="YKkuQYXPzLdTV8S69N7t-57">
          <mxGeometry width="50" height="50" relative="1" as="geometry">
            <mxPoint x="779.2893218813452" y="450" as="sourcePoint" />
            <mxPoint x="779.2893218813452" y="400" as="targetPoint" />
          </mxGeometry>
        </mxCell>
        <mxCell id="YKkuQYXPzLdTV8S69N7t-60" value="N" style="text;html=1;align=center;verticalAlign=middle;resizable=0;points=[];autosize=1;strokeColor=none;fillColor=none;" vertex="1" parent="1">
          <mxGeometry x="275" y="610" width="30" height="30" as="geometry" />
        </mxCell>
        <mxCell id="YKkuQYXPzLdTV8S69N7t-61" value="1" style="text;html=1;align=center;verticalAlign=middle;resizable=0;points=[];autosize=1;strokeColor=none;fillColor=none;" vertex="1" parent="1">
          <mxGeometry x="355" y="820" width="30" height="30" as="geometry" />
        </mxCell>
        <mxCell id="YKkuQYXPzLdTV8S69N7t-63" value="" style="endArrow=none;html=1;rounded=0;entryX=1;entryY=0.75;entryDx=0;entryDy=0;exitX=0;exitY=0.5;exitDx=0;exitDy=0;" edge="1" parent="1" source="YKkuQYXPzLdTV8S69N7t-106" target="YKkuQYXPzLdTV8S69N7t-41">
          <mxGeometry width="50" height="50" relative="1" as="geometry">
            <mxPoint x="480" y="440" as="sourcePoint" />
            <mxPoint x="200" y="300.71067811865476" as="targetPoint" />
          </mxGeometry>
        </mxCell>
        <mxCell id="YKkuQYXPzLdTV8S69N7t-64" value="" style="endArrow=none;html=1;rounded=0;entryX=1;entryY=0.25;entryDx=0;entryDy=0;exitX=0;exitY=0.5;exitDx=0;exitDy=0;" edge="1" parent="1" source="YKkuQYXPzLdTV8S69N7t-105" target="YKkuQYXPzLdTV8S69N7t-41">
          <mxGeometry width="50" height="50" relative="1" as="geometry">
            <mxPoint x="480" y="430" as="sourcePoint" />
            <mxPoint x="200" y="119.28932188134524" as="targetPoint" />
          </mxGeometry>
        </mxCell>
        <mxCell id="YKkuQYXPzLdTV8S69N7t-66" value="M" style="text;html=1;align=center;verticalAlign=middle;resizable=0;points=[];autosize=1;strokeColor=none;fillColor=none;" vertex="1" parent="1">
          <mxGeometry x="555" y="370" width="30" height="30" as="geometry" />
        </mxCell>
        <mxCell id="YKkuQYXPzLdTV8S69N7t-67" value="N" style="text;html=1;align=center;verticalAlign=middle;resizable=0;points=[];autosize=1;strokeColor=none;fillColor=none;" vertex="1" parent="1">
          <mxGeometry x="560" y="430" width="30" height="30" as="geometry" />
        </mxCell>
        <mxCell id="YKkuQYXPzLdTV8S69N7t-68" value="" style="rhombus;whiteSpace=wrap;html=1;" vertex="1" parent="1">
          <mxGeometry x="200" y="345" width="40" height="40" as="geometry" />
        </mxCell>
        <mxCell id="YKkuQYXPzLdTV8S69N7t-69" value="" style="endArrow=none;html=1;rounded=0;entryX=0;entryY=0.75;entryDx=0;entryDy=0;exitX=0.5;exitY=1;exitDx=0;exitDy=0;" edge="1" parent="1" source="YKkuQYXPzLdTV8S69N7t-68" target="YKkuQYXPzLdTV8S69N7t-41">
          <mxGeometry width="50" height="50" relative="1" as="geometry">
            <mxPoint x="200" y="370" as="sourcePoint" />
            <mxPoint x="200" y="390.71067811865476" as="targetPoint" />
            <Array as="points">
              <mxPoint x="220" y="480" />
            </Array>
          </mxGeometry>
        </mxCell>
        <mxCell id="YKkuQYXPzLdTV8S69N7t-70" value="" style="endArrow=none;html=1;rounded=0;entryX=0;entryY=0.25;entryDx=0;entryDy=0;" edge="1" parent="1" source="YKkuQYXPzLdTV8S69N7t-68" target="YKkuQYXPzLdTV8S69N7t-41">
          <mxGeometry width="50" height="50" relative="1" as="geometry">
            <mxPoint x="220" y="350" as="sourcePoint" />
            <mxPoint x="290.71067811865476" y="300" as="targetPoint" />
          </mxGeometry>
        </mxCell>
        <mxCell id="YKkuQYXPzLdTV8S69N7t-71" value="krug" style="text;html=1;align=center;verticalAlign=middle;resizable=0;points=[];autosize=1;strokeColor=none;fillColor=none;" vertex="1" parent="1">
          <mxGeometry x="225" y="320" width="50" height="30" as="geometry" />
        </mxCell>
        <mxCell id="YKkuQYXPzLdTV8S69N7t-72" value="N" style="text;html=1;align=center;verticalAlign=middle;resizable=0;points=[];autosize=1;strokeColor=none;fillColor=none;" vertex="1" parent="1">
          <mxGeometry x="265" y="450" width="30" height="30" as="geometry" />
        </mxCell>
        <mxCell id="YKkuQYXPzLdTV8S69N7t-73" value="M" style="text;html=1;align=center;verticalAlign=middle;resizable=0;points=[];autosize=1;strokeColor=none;fillColor=none;" vertex="1" parent="1">
          <mxGeometry x="255" y="400" width="30" height="30" as="geometry" />
        </mxCell>
        <mxCell id="YKkuQYXPzLdTV8S69N7t-100" style="rounded=0;orthogonalLoop=1;jettySize=auto;html=1;exitX=0;exitY=1;exitDx=0;exitDy=0;entryX=0.75;entryY=0;entryDx=0;entryDy=0;endArrow=none;endFill=0;" edge="1" parent="1" source="YKkuQYXPzLdTV8S69N7t-74" target="YKkuQYXPzLdTV8S69N7t-99">
          <mxGeometry relative="1" as="geometry" />
        </mxCell>
        <mxCell id="YKkuQYXPzLdTV8S69N7t-74" value="vremetraenje" style="ellipse;whiteSpace=wrap;html=1;" vertex="1" parent="1">
          <mxGeometry x="860" y="358" width="80" height="50" as="geometry" />
        </mxCell>
        <mxCell id="YKkuQYXPzLdTV8S69N7t-101" style="rounded=0;orthogonalLoop=1;jettySize=auto;html=1;exitX=0;exitY=0.5;exitDx=0;exitDy=0;entryX=1;entryY=0.5;entryDx=0;entryDy=0;endArrow=none;endFill=0;" edge="1" parent="1" source="YKkuQYXPzLdTV8S69N7t-75" target="YKkuQYXPzLdTV8S69N7t-99">
          <mxGeometry relative="1" as="geometry" />
        </mxCell>
        <mxCell id="YKkuQYXPzLdTV8S69N7t-75" value="datum" style="ellipse;whiteSpace=wrap;html=1;" vertex="1" parent="1">
          <mxGeometry x="840" y="418" width="80" height="50" as="geometry" />
        </mxCell>
        <mxCell id="YKkuQYXPzLdTV8S69N7t-102" style="rounded=0;orthogonalLoop=1;jettySize=auto;html=1;exitX=0;exitY=1;exitDx=0;exitDy=0;entryX=1;entryY=1;entryDx=0;entryDy=0;endArrow=none;endFill=0;" edge="1" parent="1" source="YKkuQYXPzLdTV8S69N7t-76" target="YKkuQYXPzLdTV8S69N7t-99">
          <mxGeometry relative="1" as="geometry" />
        </mxCell>
        <mxCell id="YKkuQYXPzLdTV8S69N7t-76" value="vreme&lt;br&gt;pocetok" style="ellipse;whiteSpace=wrap;html=1;" vertex="1" parent="1">
          <mxGeometry x="750" y="453" width="80" height="50" as="geometry" />
        </mxCell>
        <mxCell id="YKkuQYXPzLdTV8S69N7t-82" value="SMS PORAKA" style="rounded=0;whiteSpace=wrap;html=1;" vertex="1" parent="1">
          <mxGeometry x="490" y="530" width="120" height="60" as="geometry" />
        </mxCell>
        <mxCell id="YKkuQYXPzLdTV8S69N7t-86" value="" style="rounded=0;orthogonalLoop=1;jettySize=auto;html=1;entryX=0;entryY=0.75;entryDx=0;entryDy=0;shape=link;" edge="1" parent="1" source="YKkuQYXPzLdTV8S69N7t-83" target="YKkuQYXPzLdTV8S69N7t-82">
          <mxGeometry relative="1" as="geometry" />
        </mxCell>
        <mxCell id="YKkuQYXPzLdTV8S69N7t-83" value="" style="rhombus;whiteSpace=wrap;html=1;" vertex="1" parent="1">
          <mxGeometry x="380" y="535" width="40" height="40" as="geometry" />
        </mxCell>
        <mxCell id="YKkuQYXPzLdTV8S69N7t-87" value="" style="edgeStyle=orthogonalEdgeStyle;rounded=0;orthogonalLoop=1;jettySize=auto;html=1;shape=link;" edge="1" parent="1" source="YKkuQYXPzLdTV8S69N7t-84" target="YKkuQYXPzLdTV8S69N7t-82">
          <mxGeometry relative="1" as="geometry" />
        </mxCell>
        <mxCell id="YKkuQYXPzLdTV8S69N7t-89" value="" style="edgeStyle=orthogonalEdgeStyle;rounded=0;orthogonalLoop=1;jettySize=auto;html=1;entryX=0.75;entryY=1;entryDx=0;entryDy=0;endArrow=none;endFill=0;" edge="1" parent="1" source="YKkuQYXPzLdTV8S69N7t-84" target="YKkuQYXPzLdTV8S69N7t-41">
          <mxGeometry relative="1" as="geometry" />
        </mxCell>
        <mxCell id="YKkuQYXPzLdTV8S69N7t-84" value="" style="rhombus;whiteSpace=wrap;html=1;" vertex="1" parent="1">
          <mxGeometry x="435" y="480" width="40" height="40" as="geometry" />
        </mxCell>
        <mxCell id="YKkuQYXPzLdTV8S69N7t-91" value="" style="endArrow=none;html=1;rounded=0;entryX=0.438;entryY=1.063;entryDx=0;entryDy=0;entryPerimeter=0;" edge="1" parent="1" source="YKkuQYXPzLdTV8S69N7t-83" target="YKkuQYXPzLdTV8S69N7t-41">
          <mxGeometry width="50" height="50" relative="1" as="geometry">
            <mxPoint x="309.28932188134524" y="605" as="sourcePoint" />
            <mxPoint x="309.28932188134524" y="555" as="targetPoint" />
          </mxGeometry>
        </mxCell>
        <mxCell id="YKkuQYXPzLdTV8S69N7t-92" value="primac" style="text;html=1;align=center;verticalAlign=middle;resizable=0;points=[];autosize=1;strokeColor=none;fillColor=none;" vertex="1" parent="1">
          <mxGeometry x="450" y="463" width="60" height="30" as="geometry" />
        </mxCell>
        <mxCell id="YKkuQYXPzLdTV8S69N7t-93" value="prakac" style="text;html=1;align=center;verticalAlign=middle;resizable=0;points=[];autosize=1;strokeColor=none;fillColor=none;" vertex="1" parent="1">
          <mxGeometry x="400" y="518" width="60" height="30" as="geometry" />
        </mxCell>
        <mxCell id="YKkuQYXPzLdTV8S69N7t-94" value="1" style="text;html=1;align=center;verticalAlign=middle;resizable=0;points=[];autosize=1;strokeColor=none;fillColor=none;" vertex="1" parent="1">
          <mxGeometry x="385" y="458" width="30" height="30" as="geometry" />
        </mxCell>
        <mxCell id="YKkuQYXPzLdTV8S69N7t-95" value="&lt;br&gt;N" style="text;html=1;align=center;verticalAlign=middle;resizable=0;points=[];autosize=1;strokeColor=none;fillColor=none;" vertex="1" parent="1">
          <mxGeometry x="555" y="493" width="30" height="40" as="geometry" />
        </mxCell>
        <mxCell id="YKkuQYXPzLdTV8S69N7t-96" value="N" style="text;html=1;align=center;verticalAlign=middle;resizable=0;points=[];autosize=1;strokeColor=none;fillColor=none;" vertex="1" parent="1">
          <mxGeometry x="455" y="538" width="30" height="30" as="geometry" />
        </mxCell>
        <mxCell id="YKkuQYXPzLdTV8S69N7t-97" value="M" style="text;html=1;align=center;verticalAlign=middle;resizable=0;points=[];autosize=1;strokeColor=none;fillColor=none;" vertex="1" parent="1">
          <mxGeometry x="350" y="458" width="30" height="30" as="geometry" />
        </mxCell>
        <mxCell id="YKkuQYXPzLdTV8S69N7t-132" style="rounded=0;orthogonalLoop=1;jettySize=auto;html=1;exitX=0.75;exitY=1;exitDx=0;exitDy=0;entryX=0;entryY=0;entryDx=0;entryDy=0;endArrow=none;endFill=0;shape=link;" edge="1" parent="1" source="YKkuQYXPzLdTV8S69N7t-99" target="YKkuQYXPzLdTV8S69N7t-128">
          <mxGeometry relative="1" as="geometry" />
        </mxCell>
        <mxCell id="YKkuQYXPzLdTV8S69N7t-99" value="RAZGOVOR" style="rounded=0;whiteSpace=wrap;html=1;" vertex="1" parent="1">
          <mxGeometry x="585" y="385" width="120" height="60" as="geometry" />
        </mxCell>
        <mxCell id="YKkuQYXPzLdTV8S69N7t-107" style="rounded=0;orthogonalLoop=1;jettySize=auto;html=1;exitX=1;exitY=0.5;exitDx=0;exitDy=0;entryX=0;entryY=0.25;entryDx=0;entryDy=0;shape=link;" edge="1" parent="1" source="YKkuQYXPzLdTV8S69N7t-105" target="YKkuQYXPzLdTV8S69N7t-99">
          <mxGeometry relative="1" as="geometry" />
        </mxCell>
        <mxCell id="YKkuQYXPzLdTV8S69N7t-105" value="" style="rhombus;whiteSpace=wrap;html=1;" vertex="1" parent="1">
          <mxGeometry x="500" y="380" width="40" height="40" as="geometry" />
        </mxCell>
        <mxCell id="YKkuQYXPzLdTV8S69N7t-108" style="edgeStyle=orthogonalEdgeStyle;rounded=0;orthogonalLoop=1;jettySize=auto;html=1;entryX=0;entryY=0.75;entryDx=0;entryDy=0;shape=link;" edge="1" parent="1" source="YKkuQYXPzLdTV8S69N7t-106" target="YKkuQYXPzLdTV8S69N7t-99">
          <mxGeometry relative="1" as="geometry" />
        </mxCell>
        <mxCell id="YKkuQYXPzLdTV8S69N7t-106" value="" style="rhombus;whiteSpace=wrap;html=1;" vertex="1" parent="1">
          <mxGeometry x="500" y="430" width="40" height="40" as="geometry" />
        </mxCell>
        <mxCell id="YKkuQYXPzLdTV8S69N7t-109" value="1" style="text;html=1;align=center;verticalAlign=middle;resizable=0;points=[];autosize=1;strokeColor=none;fillColor=none;" vertex="1" parent="1">
          <mxGeometry x="425" y="378" width="30" height="30" as="geometry" />
        </mxCell>
        <mxCell id="YKkuQYXPzLdTV8S69N7t-110" value="1" style="text;html=1;align=center;verticalAlign=middle;resizable=0;points=[];autosize=1;strokeColor=none;fillColor=none;" vertex="1" parent="1">
          <mxGeometry x="425" y="418" width="30" height="30" as="geometry" />
        </mxCell>
        <mxCell id="YKkuQYXPzLdTV8S69N7t-121" style="edgeStyle=orthogonalEdgeStyle;rounded=0;orthogonalLoop=1;jettySize=auto;html=1;exitX=1;exitY=1;exitDx=0;exitDy=0;endArrow=none;endFill=0;" edge="1" parent="1" source="YKkuQYXPzLdTV8S69N7t-111" target="YKkuQYXPzLdTV8S69N7t-115">
          <mxGeometry relative="1" as="geometry" />
        </mxCell>
        <mxCell id="YKkuQYXPzLdTV8S69N7t-130" style="edgeStyle=orthogonalEdgeStyle;rounded=0;orthogonalLoop=1;jettySize=auto;html=1;exitX=0;exitY=0.75;exitDx=0;exitDy=0;entryX=1;entryY=0.5;entryDx=0;entryDy=0;endArrow=none;endFill=0;" edge="1" parent="1" source="YKkuQYXPzLdTV8S69N7t-111" target="YKkuQYXPzLdTV8S69N7t-127">
          <mxGeometry relative="1" as="geometry" />
        </mxCell>
        <mxCell id="YKkuQYXPzLdTV8S69N7t-111" value="TARIFA" style="rounded=0;whiteSpace=wrap;html=1;" vertex="1" parent="1">
          <mxGeometry x="710" y="640" width="120" height="60" as="geometry" />
        </mxCell>
        <mxCell id="YKkuQYXPzLdTV8S69N7t-117" style="edgeStyle=orthogonalEdgeStyle;rounded=0;orthogonalLoop=1;jettySize=auto;html=1;exitX=0;exitY=1;exitDx=0;exitDy=0;entryX=0.75;entryY=0;entryDx=0;entryDy=0;endArrow=none;endFill=0;" edge="1" parent="1" source="YKkuQYXPzLdTV8S69N7t-112" target="YKkuQYXPzLdTV8S69N7t-111">
          <mxGeometry relative="1" as="geometry" />
        </mxCell>
        <mxCell id="YKkuQYXPzLdTV8S69N7t-112" value="pocetok" style="ellipse;whiteSpace=wrap;html=1;" vertex="1" parent="1">
          <mxGeometry x="830" y="508" width="80" height="50" as="geometry" />
        </mxCell>
        <mxCell id="YKkuQYXPzLdTV8S69N7t-118" style="edgeStyle=orthogonalEdgeStyle;rounded=0;orthogonalLoop=1;jettySize=auto;html=1;exitX=0;exitY=1;exitDx=0;exitDy=0;entryX=1;entryY=0.25;entryDx=0;entryDy=0;endArrow=none;endFill=0;" edge="1" parent="1" source="YKkuQYXPzLdTV8S69N7t-113" target="YKkuQYXPzLdTV8S69N7t-111">
          <mxGeometry relative="1" as="geometry" />
        </mxCell>
        <mxCell id="YKkuQYXPzLdTV8S69N7t-113" value="kraj" style="ellipse;whiteSpace=wrap;html=1;" vertex="1" parent="1">
          <mxGeometry x="920" y="545" width="80" height="50" as="geometry" />
        </mxCell>
        <mxCell id="YKkuQYXPzLdTV8S69N7t-119" style="edgeStyle=orthogonalEdgeStyle;rounded=0;orthogonalLoop=1;jettySize=auto;html=1;exitX=0;exitY=0.5;exitDx=0;exitDy=0;entryX=1;entryY=0.75;entryDx=0;entryDy=0;endArrow=none;endFill=0;" edge="1" parent="1" source="YKkuQYXPzLdTV8S69N7t-114" target="YKkuQYXPzLdTV8S69N7t-111">
          <mxGeometry relative="1" as="geometry" />
        </mxCell>
        <mxCell id="YKkuQYXPzLdTV8S69N7t-114" value="tip" style="ellipse;whiteSpace=wrap;html=1;" vertex="1" parent="1">
          <mxGeometry x="970" y="610" width="80" height="50" as="geometry" />
        </mxCell>
        <mxCell id="YKkuQYXPzLdTV8S69N7t-115" value="&lt;u&gt;sifra&lt;/u&gt;" style="ellipse;whiteSpace=wrap;html=1;" vertex="1" parent="1">
          <mxGeometry x="980" y="680" width="80" height="50" as="geometry" />
        </mxCell>
        <mxCell id="YKkuQYXPzLdTV8S69N7t-120" style="edgeStyle=orthogonalEdgeStyle;rounded=0;orthogonalLoop=1;jettySize=auto;html=1;entryX=0.75;entryY=1;entryDx=0;entryDy=0;endArrow=none;endFill=0;" edge="1" parent="1" source="YKkuQYXPzLdTV8S69N7t-116" target="YKkuQYXPzLdTV8S69N7t-111">
          <mxGeometry relative="1" as="geometry" />
        </mxCell>
        <mxCell id="YKkuQYXPzLdTV8S69N7t-116" value="cena na&lt;br&gt;cineje" style="ellipse;whiteSpace=wrap;html=1;" vertex="1" parent="1">
          <mxGeometry x="970" y="750" width="80" height="50" as="geometry" />
        </mxCell>
        <mxCell id="YKkuQYXPzLdTV8S69N7t-122" value="" style="rhombus;whiteSpace=wrap;html=1;" vertex="1" parent="1">
          <mxGeometry x="500" y="770" width="40" height="40" as="geometry" />
        </mxCell>
        <mxCell id="YKkuQYXPzLdTV8S69N7t-124" style="edgeStyle=orthogonalEdgeStyle;rounded=0;orthogonalLoop=1;jettySize=auto;html=1;exitX=0;exitY=1;exitDx=0;exitDy=0;entryX=1;entryY=0.5;entryDx=0;entryDy=0;endArrow=none;endFill=0;shape=link;" edge="1" parent="1" source="YKkuQYXPzLdTV8S69N7t-111" target="YKkuQYXPzLdTV8S69N7t-122">
          <mxGeometry relative="1" as="geometry" />
        </mxCell>
        <mxCell id="YKkuQYXPzLdTV8S69N7t-125" value="N" style="text;html=1;align=center;verticalAlign=middle;resizable=0;points=[];autosize=1;strokeColor=none;fillColor=none;" vertex="1" parent="1">
          <mxGeometry x="680" y="710" width="30" height="30" as="geometry" />
        </mxCell>
        <mxCell id="YKkuQYXPzLdTV8S69N7t-126" value="M" style="text;html=1;align=center;verticalAlign=middle;resizable=0;points=[];autosize=1;strokeColor=none;fillColor=none;" vertex="1" parent="1">
          <mxGeometry x="405" y="828" width="30" height="30" as="geometry" />
        </mxCell>
        <mxCell id="YKkuQYXPzLdTV8S69N7t-127" value="" style="rhombus;whiteSpace=wrap;html=1;" vertex="1" parent="1">
          <mxGeometry x="520" y="660" width="40" height="40" as="geometry" />
        </mxCell>
        <mxCell id="YKkuQYXPzLdTV8S69N7t-131" style="edgeStyle=orthogonalEdgeStyle;rounded=0;orthogonalLoop=1;jettySize=auto;html=1;exitX=0.5;exitY=1;exitDx=0;exitDy=0;entryX=0;entryY=0;entryDx=0;entryDy=0;endArrow=none;endFill=0;" edge="1" parent="1" source="YKkuQYXPzLdTV8S69N7t-128" target="YKkuQYXPzLdTV8S69N7t-111">
          <mxGeometry relative="1" as="geometry" />
        </mxCell>
        <mxCell id="YKkuQYXPzLdTV8S69N7t-128" value="" style="rhombus;whiteSpace=wrap;html=1;" vertex="1" parent="1">
          <mxGeometry x="680" y="530" width="40" height="40" as="geometry" />
        </mxCell>
        <mxCell id="YKkuQYXPzLdTV8S69N7t-129" style="edgeStyle=orthogonalEdgeStyle;rounded=0;orthogonalLoop=1;jettySize=auto;html=1;exitX=0.5;exitY=0;exitDx=0;exitDy=0;entryX=0.417;entryY=1.032;entryDx=0;entryDy=0;entryPerimeter=0;endArrow=none;endFill=0;shape=link;" edge="1" parent="1" source="YKkuQYXPzLdTV8S69N7t-127" target="YKkuQYXPzLdTV8S69N7t-82">
          <mxGeometry relative="1" as="geometry" />
        </mxCell>
        <mxCell id="YKkuQYXPzLdTV8S69N7t-133" value="1" style="text;html=1;align=center;verticalAlign=middle;resizable=0;points=[];autosize=1;strokeColor=none;fillColor=none;" vertex="1" parent="1">
          <mxGeometry x="715" y="608" width="30" height="30" as="geometry" />
        </mxCell>
        <mxCell id="YKkuQYXPzLdTV8S69N7t-134" value="N" style="text;html=1;align=center;verticalAlign=middle;resizable=0;points=[];autosize=1;strokeColor=none;fillColor=none;" vertex="1" parent="1">
          <mxGeometry x="650" y="458" width="30" height="30" as="geometry" />
        </mxCell>
        <mxCell id="YKkuQYXPzLdTV8S69N7t-135" value="M" style="text;html=1;align=center;verticalAlign=middle;resizable=0;points=[];autosize=1;strokeColor=none;fillColor=none;" vertex="1" parent="1">
          <mxGeometry x="555" y="598" width="30" height="30" as="geometry" />
        </mxCell>
        <mxCell id="YKkuQYXPzLdTV8S69N7t-136" value="N" style="text;html=1;align=center;verticalAlign=middle;resizable=0;points=[];autosize=1;strokeColor=none;fillColor=none;" vertex="1" parent="1">
          <mxGeometry x="655" y="658" width="30" height="30" as="geometry" />
        </mxCell>
        <mxCell id="YKkuQYXPzLdTV8S69N7t-139" style="edgeStyle=orthogonalEdgeStyle;rounded=0;orthogonalLoop=1;jettySize=auto;html=1;exitX=0;exitY=0.75;exitDx=0;exitDy=0;entryX=1;entryY=0.5;entryDx=0;entryDy=0;endArrow=none;endFill=0;" edge="1" parent="1" source="YKkuQYXPzLdTV8S69N7t-137" target="YKkuQYXPzLdTV8S69N7t-138">
          <mxGeometry relative="1" as="geometry" />
        </mxCell>
        <mxCell id="YKkuQYXPzLdTV8S69N7t-137" value="TTIP KORISNIK" style="rounded=0;whiteSpace=wrap;html=1;" vertex="1" parent="1">
          <mxGeometry x="820" y="50" width="120" height="60" as="geometry" />
        </mxCell>
        <mxCell id="YKkuQYXPzLdTV8S69N7t-138" value="" style="rhombus;whiteSpace=wrap;html=1;" vertex="1" parent="1">
          <mxGeometry x="680" y="200" width="40" height="40" as="geometry" />
        </mxCell>
        <mxCell id="YKkuQYXPzLdTV8S69N7t-140" value="N" style="text;html=1;align=center;verticalAlign=middle;resizable=0;points=[];autosize=1;strokeColor=none;fillColor=none;" vertex="1" parent="1">
          <mxGeometry x="485" y="218" width="30" height="30" as="geometry" />
        </mxCell>
        <mxCell id="YKkuQYXPzLdTV8S69N7t-141" value="1" style="text;html=1;align=center;verticalAlign=middle;resizable=0;points=[];autosize=1;strokeColor=none;fillColor=none;" vertex="1" parent="1">
          <mxGeometry x="775" y="100" width="30" height="30" as="geometry" />
        </mxCell>
        <mxCell id="YKkuQYXPzLdTV8S69N7t-146" style="edgeStyle=orthogonalEdgeStyle;rounded=0;orthogonalLoop=1;jettySize=auto;html=1;exitX=1;exitY=1;exitDx=0;exitDy=0;entryX=0;entryY=0.5;entryDx=0;entryDy=0;endArrow=none;endFill=0;" edge="1" parent="1" source="YKkuQYXPzLdTV8S69N7t-142" target="YKkuQYXPzLdTV8S69N7t-144">
          <mxGeometry relative="1" as="geometry" />
        </mxCell>
        <mxCell id="YKkuQYXPzLdTV8S69N7t-149" style="edgeStyle=orthogonalEdgeStyle;rounded=0;orthogonalLoop=1;jettySize=auto;html=1;exitX=0.25;exitY=0;exitDx=0;exitDy=0;entryX=0.5;entryY=1;entryDx=0;entryDy=0;endArrow=none;endFill=0;shape=link;" edge="1" parent="1" source="YKkuQYXPzLdTV8S69N7t-142" target="YKkuQYXPzLdTV8S69N7t-147">
          <mxGeometry relative="1" as="geometry" />
        </mxCell>
        <mxCell id="YKkuQYXPzLdTV8S69N7t-142" value="DOPOLNITELNA&lt;br&gt;USLUGA" style="rounded=0;whiteSpace=wrap;html=1;" vertex="1" parent="1">
          <mxGeometry x="890" y="200" width="120" height="60" as="geometry" />
        </mxCell>
        <mxCell id="YKkuQYXPzLdTV8S69N7t-145" style="edgeStyle=orthogonalEdgeStyle;rounded=0;orthogonalLoop=1;jettySize=auto;html=1;exitX=0;exitY=1;exitDx=0;exitDy=0;entryX=1;entryY=0.5;entryDx=0;entryDy=0;endArrow=none;endFill=0;" edge="1" parent="1" source="YKkuQYXPzLdTV8S69N7t-143" target="YKkuQYXPzLdTV8S69N7t-142">
          <mxGeometry relative="1" as="geometry" />
        </mxCell>
        <mxCell id="YKkuQYXPzLdTV8S69N7t-143" value="ime" style="ellipse;whiteSpace=wrap;html=1;" vertex="1" parent="1">
          <mxGeometry x="1110" y="140" width="80" height="50" as="geometry" />
        </mxCell>
        <mxCell id="YKkuQYXPzLdTV8S69N7t-144" value="opis" style="ellipse;whiteSpace=wrap;html=1;" vertex="1" parent="1">
          <mxGeometry x="1130" y="250" width="80" height="50" as="geometry" />
        </mxCell>
        <mxCell id="YKkuQYXPzLdTV8S69N7t-147" value="" style="rhombus;whiteSpace=wrap;html=1;" vertex="1" parent="1">
          <mxGeometry x="900" y="140" width="40" height="40" as="geometry" />
        </mxCell>
        <mxCell id="YKkuQYXPzLdTV8S69N7t-148" style="rounded=0;orthogonalLoop=1;jettySize=auto;html=1;exitX=0;exitY=0;exitDx=0;exitDy=0;entryX=0.667;entryY=1;entryDx=0;entryDy=0;entryPerimeter=0;endArrow=none;endFill=0;shape=link;" edge="1" parent="1" source="YKkuQYXPzLdTV8S69N7t-147" target="YKkuQYXPzLdTV8S69N7t-137">
          <mxGeometry relative="1" as="geometry" />
        </mxCell>
        <mxCell id="YKkuQYXPzLdTV8S69N7t-151" style="edgeStyle=orthogonalEdgeStyle;rounded=0;orthogonalLoop=1;jettySize=auto;html=1;exitX=0;exitY=0.5;exitDx=0;exitDy=0;entryX=1;entryY=0.5;entryDx=0;entryDy=0;endArrow=none;endFill=0;" edge="1" parent="1" source="YKkuQYXPzLdTV8S69N7t-150" target="YKkuQYXPzLdTV8S69N7t-147">
          <mxGeometry relative="1" as="geometry" />
        </mxCell>
        <mxCell id="YKkuQYXPzLdTV8S69N7t-150" value="cena" style="ellipse;whiteSpace=wrap;html=1;" vertex="1" parent="1">
          <mxGeometry x="990" y="100" width="80" height="50" as="geometry" />
        </mxCell>
        <mxCell id="YKkuQYXPzLdTV8S69N7t-152" value="N" style="text;html=1;align=center;verticalAlign=middle;resizable=0;points=[];autosize=1;strokeColor=none;fillColor=none;" vertex="1" parent="1">
          <mxGeometry x="890" y="170" width="30" height="30" as="geometry" />
        </mxCell>
        <mxCell id="YKkuQYXPzLdTV8S69N7t-153" value="M" style="text;html=1;align=center;verticalAlign=middle;resizable=0;points=[];autosize=1;strokeColor=none;fillColor=none;" vertex="1" parent="1">
          <mxGeometry x="875" y="118" width="30" height="30" as="geometry" />
        </mxCell>
        <mxCell id="YKkuQYXPzLdTV8S69N7t-155" style="edgeStyle=orthogonalEdgeStyle;rounded=0;orthogonalLoop=1;jettySize=auto;html=1;exitX=0;exitY=0.5;exitDx=0;exitDy=0;entryX=1;entryY=0.5;entryDx=0;entryDy=0;endArrow=none;endFill=0;" edge="1" parent="1" source="YKkuQYXPzLdTV8S69N7t-154" target="YKkuQYXPzLdTV8S69N7t-31">
          <mxGeometry relative="1" as="geometry" />
        </mxCell>
        <mxCell id="YKkuQYXPzLdTV8S69N7t-156" style="edgeStyle=orthogonalEdgeStyle;rounded=0;orthogonalLoop=1;jettySize=auto;html=1;exitX=1;exitY=0.5;exitDx=0;exitDy=0;entryX=0.75;entryY=1;entryDx=0;entryDy=0;endArrow=none;endFill=0;" edge="1" parent="1" source="YKkuQYXPzLdTV8S69N7t-154" target="YKkuQYXPzLdTV8S69N7t-142">
          <mxGeometry relative="1" as="geometry">
            <Array as="points">
              <mxPoint x="1110" y="920" />
              <mxPoint x="1110" y="480" />
              <mxPoint x="980" y="480" />
            </Array>
          </mxGeometry>
        </mxCell>
        <mxCell id="YKkuQYXPzLdTV8S69N7t-154" value="" style="rhombus;whiteSpace=wrap;html=1;" vertex="1" parent="1">
          <mxGeometry x="1050" y="900" width="40" height="40" as="geometry" />
        </mxCell>
        <mxCell id="YKkuQYXPzLdTV8S69N7t-157" value="N" style="text;html=1;align=center;verticalAlign=middle;resizable=0;points=[];autosize=1;strokeColor=none;fillColor=none;" vertex="1" parent="1">
          <mxGeometry x="935" y="268" width="30" height="30" as="geometry" />
        </mxCell>
        <mxCell id="YKkuQYXPzLdTV8S69N7t-158" value="M" style="text;html=1;align=center;verticalAlign=middle;resizable=0;points=[];autosize=1;strokeColor=none;fillColor=none;" vertex="1" parent="1">
          <mxGeometry x="435" y="858" width="30" height="30" as="geometry" />
        </mxCell>
        <mxCell id="YKkuQYXPzLdTV8S69N7t-159" value="" style="rhombus;whiteSpace=wrap;html=1;" vertex="1" parent="1">
          <mxGeometry x="585" y="278" width="40" height="40" as="geometry" />
        </mxCell>
      </root>
    </mxGraphModel>
  </diagram>
</mxfile>
